<svg xmlns="http://www.w3.org/2000/svg" width="64" height="64" viewBox="0 0 64 64" shape-rendering="crispEdges">
  <metadata>Editable canonical pixel master; palette-role groups preserve semantic color ownership.</metadata>
  <g id="boss_threat" fill="#962754">
    <rect x="45" y="22" width="1" height="1"/>
    <rect x="44" y="23" width="3" height="1"/>
    <rect x="43" y="24" width="5" height="1"/>
    <rect x="42" y="25" width="7" height="1"/>
    <rect x="41" y="26" width="9" height="1"/>
    <rect x="40" y="27" width="11" height="1"/>
    <rect x="39" y="28" width="6" height="1"/>
    <rect x="46" y="28" width="6" height="1"/>
    <rect x="38" y="29" width="5" height="1"/>
    <rect x="48" y="29" width="5" height="1"/>
    <rect x="37" y="30" width="5" height="1"/>
    <rect x="49" y="30" width="5" height="1"/>
    <rect x="36" y="31" width="6" height="1"/>
    <rect x="49" y="31" width="6" height="1"/>
    <rect x="35" y="32" width="6" height="1"/>
    <rect x="50" y="32" width="6" height="1"/>
    <rect x="36" y="33" width="6" height="1"/>
    <rect x="49" y="33" width="6" height="1"/>
    <rect x="37" y="34" width="5" height="1"/>
    <rect x="49" y="34" width="5" height="1"/>
    <rect x="38" y="35" width="5" height="1"/>
    <rect x="48" y="35" width="5" height="1"/>
    <rect x="39" y="36" width="6" height="1"/>
    <rect x="46" y="36" width="6" height="1"/>
    <rect x="40" y="37" width="11" height="1"/>
    <rect x="41" y="38" width="9" height="1"/>
    <rect x="42" y="39" width="7" height="1"/>
    <rect x="43" y="40" width="5" height="1"/>
    <rect x="44" y="41" width="3" height="1"/>
    <rect x="45" y="42" width="1" height="1"/>
  </g>
  <g id="blocker_edge" fill="#222B35">
    <rect x="18" y="27" width="22" height="1"/>
    <rect x="18" y="28" width="21" height="1"/>
    <rect x="18" y="29" width="20" height="1"/>
    <rect x="18" y="30" width="19" height="1"/>
    <rect x="18" y="31" width="18" height="1"/>
    <rect x="18" y="32" width="17" height="1"/>
    <rect x="18" y="33" width="18" height="1"/>
    <rect x="18" y="34" width="19" height="1"/>
    <rect x="18" y="35" width="20" height="1"/>
    <rect x="18" y="36" width="21" height="1"/>
  </g>
  <g id="neutral_highlight" fill="#E8EEF0">
    <rect x="45" y="28" width="1" height="1"/>
    <rect x="43" y="29" width="5" height="1"/>
    <rect x="42" y="30" width="7" height="1"/>
    <rect x="42" y="31" width="7" height="1"/>
    <rect x="41" y="32" width="9" height="1"/>
    <rect x="42" y="33" width="7" height="1"/>
    <rect x="42" y="34" width="7" height="1"/>
    <rect x="43" y="35" width="5" height="1"/>
    <rect x="45" y="36" width="1" height="1"/>
  </g>
</svg>
