<svg xmlns="http://www.w3.org/2000/svg" width="64" height="64" viewBox="0 0 64 64" shape-rendering="crispEdges">
  <metadata>Generated from burst.png; transparent pixels omitted; same-color horizontal pixels merged.</metadata>
  <rect x="13" y="5" width="1" height="1" fill="#65A9B8"/>
  <rect x="12" y="6" width="2" height="1" fill="#65A9B8"/>
  <rect x="12" y="7" width="2" height="1" fill="#65A9B8"/>
  <rect x="12" y="8" width="2" height="1" fill="#65A9B8"/>
  <rect x="11" y="9" width="3" height="1" fill="#65A9B8"/>
  <rect x="11" y="10" width="3" height="1" fill="#65A9B8"/>
  <rect x="10" y="11" width="4" height="1" fill="#65A9B8"/>
  <rect x="10" y="12" width="5" height="1" fill="#65A9B8"/>
  <rect x="10" y="13" width="5" height="1" fill="#65A9B8"/>
  <rect x="10" y="14" width="5" height="1" fill="#65A9B8"/>
  <rect x="9" y="15" width="7" height="1" fill="#65A9B8"/>
  <rect x="4" y="16" width="1" height="1" fill="#65A9B8"/>
  <rect x="9" y="16" width="7" height="1" fill="#65A9B8"/>
  <rect x="4" y="17" width="2" height="1" fill="#65A9B8"/>
  <rect x="9" y="17" width="7" height="1" fill="#65A9B8"/>
  <rect x="4" y="18" width="3" height="1" fill="#65A9B8"/>
  <rect x="8" y="18" width="8" height="1" fill="#65A9B8"/>
  <rect x="3" y="19" width="15" height="1" fill="#65A9B8"/>
  <rect x="3" y="20" width="20" height="1" fill="#65A9B8"/>
  <rect x="3" y="21" width="9" height="1" fill="#65A9B8"/>
  <rect x="14" y="21" width="10" height="1" fill="#65A9B8"/>
  <rect x="26" y="21" width="2" height="1" fill="#65A9B8"/>
  <rect x="2" y="22" width="9" height="1" fill="#65A9B8"/>
  <rect x="15" y="22" width="15" height="1" fill="#65A9B8"/>
  <rect x="2" y="23" width="8" height="1" fill="#65A9B8"/>
  <rect x="15" y="23" width="12" height="1" fill="#65A9B8"/>
  <rect x="2" y="24" width="7" height="1" fill="#65A9B8"/>
  <rect x="14" y="24" width="10" height="1" fill="#65A9B8"/>
  <rect x="2" y="25" width="6" height="1" fill="#65A9B8"/>
  <rect x="13" y="25" width="9" height="1" fill="#65A9B8"/>
  <rect x="1" y="26" width="6" height="1" fill="#65A9B8"/>
  <rect x="12" y="26" width="6" height="1" fill="#65A9B8"/>
  <rect x="1" y="27" width="5" height="1" fill="#65A9B8"/>
  <rect x="11" y="27" width="5" height="1" fill="#65A9B8"/>
  <rect x="1" y="28" width="4" height="1" fill="#65A9B8"/>
  <rect x="10" y="28" width="7" height="1" fill="#65A9B8"/>
  <rect x="1" y="29" width="3" height="1" fill="#65A9B8"/>
  <rect x="9" y="29" width="9" height="1" fill="#65A9B8"/>
  <rect x="0" y="30" width="3" height="1" fill="#65A9B8"/>
  <rect x="8" y="30" width="11" height="1" fill="#65A9B8"/>
  <rect x="0" y="31" width="2" height="1" fill="#65A9B8"/>
  <rect x="7" y="31" width="10" height="1" fill="#65A9B8"/>
  <rect x="0" y="32" width="1" height="1" fill="#65A9B8"/>
  <rect x="6" y="32" width="8" height="1" fill="#65A9B8"/>
  <rect x="0" y="33" width="1" height="1" fill="#65A9B8"/>
  <rect x="5" y="33" width="5" height="1" fill="#65A9B8"/>
  <rect x="0" y="34" width="2" height="1" fill="#65A9B8"/>
  <rect x="4" y="34" width="3" height="1" fill="#65A9B8"/>
  <rect x="0" y="35" width="3" height="1" fill="#65A9B8"/>
</svg>
