<svg xmlns="http://www.w3.org/2000/svg" width="32" height="32" viewBox="0 0 32 32" shape-rendering="crispEdges">
  <metadata>Generated from role_accent.png; transparent pixels omitted; same-color horizontal pixels merged.</metadata>
  <rect x="10" y="11" width="2" height="1" fill="#202833"/>
  <rect x="13" y="11" width="6" height="1" fill="#202833"/>
  <rect x="20" y="11" width="2" height="1" fill="#202833"/>
  <rect x="10" y="12" width="1" height="1" fill="#44515E"/>
  <rect x="11" y="12" width="2" height="1" fill="#202833"/>
  <rect x="13" y="12" width="1" height="1" fill="#44515E"/>
  <rect x="14" y="12" width="4" height="1" fill="#E8EEF0"/>
  <rect x="18" y="12" width="1" height="1" fill="#44515E"/>
  <rect x="19" y="12" width="2" height="1" fill="#202833"/>
  <rect x="21" y="12" width="1" height="1" fill="#44515E"/>
  <rect x="9" y="13" width="3" height="1" fill="#202833"/>
  <rect x="12" y="13" width="1" height="1" fill="#44515E"/>
  <rect x="13" y="13" width="2" height="1" fill="#E8EEF0"/>
  <rect x="15" y="13" width="2" height="1" fill="#C92F4E"/>
  <rect x="17" y="13" width="2" height="1" fill="#E8EEF0"/>
  <rect x="19" y="13" width="1" height="1" fill="#44515E"/>
  <rect x="20" y="13" width="3" height="1" fill="#202833"/>
  <rect x="9" y="14" width="1" height="1" fill="#202833"/>
  <rect x="10" y="14" width="1" height="1" fill="#44515E"/>
  <rect x="11" y="14" width="2" height="1" fill="#C92F4E"/>
  <rect x="13" y="14" width="1" height="1" fill="#E8EEF0"/>
  <rect x="14" y="14" width="4" height="1" fill="#C92F4E"/>
  <rect x="18" y="14" width="1" height="1" fill="#E8EEF0"/>
  <rect x="19" y="14" width="2" height="1" fill="#C92F4E"/>
  <rect x="21" y="14" width="1" height="1" fill="#44515E"/>
  <rect x="22" y="14" width="1" height="1" fill="#202833"/>
  <rect x="9" y="15" width="1" height="1" fill="#202833"/>
  <rect x="10" y="15" width="1" height="1" fill="#44515E"/>
  <rect x="11" y="15" width="2" height="1" fill="#C92F4E"/>
  <rect x="13" y="15" width="1" height="1" fill="#E8EEF0"/>
  <rect x="14" y="15" width="4" height="1" fill="#C92F4E"/>
  <rect x="18" y="15" width="1" height="1" fill="#E8EEF0"/>
  <rect x="19" y="15" width="2" height="1" fill="#C92F4E"/>
  <rect x="21" y="15" width="1" height="1" fill="#44515E"/>
  <rect x="22" y="15" width="1" height="1" fill="#202833"/>
  <rect x="9" y="16" width="2" height="1" fill="#202833"/>
  <rect x="11" y="16" width="1" height="1" fill="#44515E"/>
  <rect x="12" y="16" width="3" height="1" fill="#E8EEF0"/>
  <rect x="15" y="16" width="2" height="1" fill="#C92F4E"/>
  <rect x="17" y="16" width="3" height="1" fill="#E8EEF0"/>
  <rect x="20" y="16" width="1" height="1" fill="#44515E"/>
  <rect x="21" y="16" width="2" height="1" fill="#202833"/>
  <rect x="9" y="17" width="3" height="1" fill="#202833"/>
  <rect x="12" y="17" width="1" height="1" fill="#44515E"/>
  <rect x="13" y="17" width="6" height="1" fill="#E8EEF0"/>
  <rect x="19" y="17" width="1" height="1" fill="#44515E"/>
  <rect x="20" y="17" width="2" height="1" fill="#202833"/>
  <rect x="22" y="17" width="1" height="1" fill="#222B35"/>
  <rect x="10" y="18" width="3" height="1" fill="#202833"/>
  <rect x="13" y="18" width="1" height="1" fill="#44515E"/>
  <rect x="14" y="18" width="1" height="1" fill="#E8EEF0"/>
  <rect x="15" y="18" width="2" height="1" fill="#596774"/>
  <rect x="17" y="18" width="1" height="1" fill="#E8EEF0"/>
  <rect x="18" y="18" width="1" height="1" fill="#44515E"/>
  <rect x="19" y="18" width="3" height="1" fill="#202833"/>
  <rect x="11" y="19" width="3" height="1" fill="#202833"/>
  <rect x="14" y="19" width="1" height="1" fill="#44515E"/>
  <rect x="15" y="19" width="2" height="1" fill="#E8EEF0"/>
  <rect x="17" y="19" width="1" height="1" fill="#44515E"/>
  <rect x="18" y="19" width="3" height="1" fill="#202833"/>
  <rect x="12" y="20" width="1" height="1" fill="#202833"/>
  <rect x="13" y="20" width="1" height="1" fill="#222B35"/>
  <rect x="14" y="20" width="1" height="1" fill="#44515E"/>
  <rect x="15" y="20" width="2" height="1" fill="#E8EEF0"/>
  <rect x="17" y="20" width="1" height="1" fill="#44515E"/>
  <rect x="18" y="20" width="2" height="1" fill="#202833"/>
</svg>
