<svg xmlns="http://www.w3.org/2000/svg" width="64" height="64" viewBox="0 0 64 64" shape-rendering="crispEdges">
  <metadata>Generated from mount.png; transparent pixels omitted; same-color horizontal pixels merged.</metadata>
  <rect x="20" y="0" width="4" height="1" fill="#2E3945"/>
  <rect x="24" y="0" width="2" height="1" fill="#D9A83D"/>
  <rect x="26" y="0" width="2" height="1" fill="#44515E"/>
  <rect x="28" y="0" width="2" height="1" fill="#2E3945"/>
  <rect x="19" y="1" width="4" height="1" fill="#2E3945"/>
  <rect x="23" y="1" width="1" height="1" fill="#202833"/>
  <rect x="24" y="1" width="4" height="1" fill="#D9A83D"/>
  <rect x="28" y="1" width="1" height="1" fill="#44515E"/>
  <rect x="29" y="1" width="2" height="1" fill="#2E3945"/>
  <rect x="18" y="2" width="4" height="1" fill="#2E3945"/>
  <rect x="22" y="2" width="2" height="1" fill="#202833"/>
  <rect x="24" y="2" width="1" height="1" fill="#2E3945"/>
  <rect x="25" y="2" width="4" height="1" fill="#D9A83D"/>
  <rect x="29" y="2" width="1" height="1" fill="#44515E"/>
  <rect x="30" y="2" width="2" height="1" fill="#2E3945"/>
  <rect x="17" y="3" width="4" height="1" fill="#2E3945"/>
  <rect x="21" y="3" width="3" height="1" fill="#202833"/>
  <rect x="24" y="3" width="4" height="1" fill="#D9A83D"/>
  <rect x="29" y="3" width="1" height="1" fill="#D9A83D"/>
  <rect x="30" y="3" width="1" height="1" fill="#44515E"/>
  <rect x="31" y="3" width="2" height="1" fill="#2E3945"/>
  <rect x="16" y="4" width="4" height="1" fill="#2E3945"/>
  <rect x="20" y="4" width="3" height="1" fill="#202833"/>
  <rect x="23" y="4" width="4" height="1" fill="#D9A83D"/>
  <rect x="30" y="4" width="1" height="1" fill="#D9A83D"/>
  <rect x="31" y="4" width="1" height="1" fill="#44515E"/>
  <rect x="32" y="4" width="2" height="1" fill="#2E3945"/>
  <rect x="17" y="5" width="2" height="1" fill="#2E3945"/>
  <rect x="19" y="5" width="1" height="1" fill="#44515E"/>
  <rect x="20" y="5" width="2" height="1" fill="#202833"/>
  <rect x="22" y="5" width="4" height="1" fill="#D9A83D"/>
  <rect x="31" y="5" width="1" height="1" fill="#D9A83D"/>
  <rect x="32" y="5" width="1" height="1" fill="#44515E"/>
  <rect x="33" y="5" width="2" height="1" fill="#2E3945"/>
  <rect x="17" y="6" width="1" height="1" fill="#2E3945"/>
  <rect x="18" y="6" width="7" height="1" fill="#D9A83D"/>
  <rect x="32" y="6" width="1" height="1" fill="#D9A83D"/>
  <rect x="33" y="6" width="1" height="1" fill="#44515E"/>
  <rect x="34" y="6" width="2" height="1" fill="#2E3945"/>
  <rect x="16" y="7" width="1" height="1" fill="#44515E"/>
  <rect x="17" y="7" width="1" height="1" fill="#2E3945"/>
  <rect x="18" y="7" width="1" height="1" fill="#44515E"/>
  <rect x="19" y="7" width="5" height="1" fill="#D9A83D"/>
  <rect x="33" y="7" width="1" height="1" fill="#D9A83D"/>
  <rect x="34" y="7" width="1" height="1" fill="#44515E"/>
  <rect x="35" y="7" width="2" height="1" fill="#2E3945"/>
  <rect x="16" y="8" width="2" height="1" fill="#2E3945"/>
  <rect x="18" y="8" width="1" height="1" fill="#44515E"/>
  <rect x="19" y="8" width="4" height="1" fill="#D9A83D"/>
  <rect x="32" y="8" width="3" height="1" fill="#D9A83D"/>
  <rect x="35" y="8" width="1" height="1" fill="#44515E"/>
  <rect x="36" y="8" width="2" height="1" fill="#2E3945"/>
  <rect x="17" y="9" width="1" height="1" fill="#2E3945"/>
  <rect x="18" y="9" width="4" height="1" fill="#D9A83D"/>
  <rect x="31" y="9" width="4" height="1" fill="#D9A83D"/>
  <rect x="35" y="9" width="1" height="1" fill="#44515E"/>
  <rect x="36" y="9" width="2" height="1" fill="#2E3945"/>
  <rect x="17" y="10" width="1" height="1" fill="#2E3945"/>
  <rect x="18" y="10" width="4" height="1" fill="#D9A83D"/>
  <rect x="30" y="10" width="6" height="1" fill="#D9A83D"/>
  <rect x="36" y="10" width="1" height="1" fill="#2E3945"/>
  <rect x="16" y="11" width="2" height="1" fill="#2E3945"/>
  <rect x="18" y="11" width="1" height="1" fill="#44515E"/>
  <rect x="19" y="11" width="4" height="1" fill="#D9A83D"/>
  <rect x="29" y="11" width="4" height="1" fill="#D9A83D"/>
  <rect x="33" y="11" width="1" height="1" fill="#2E3945"/>
  <rect x="34" y="11" width="2" height="1" fill="#D9A83D"/>
  <rect x="36" y="11" width="1" height="1" fill="#2E3945"/>
  <rect x="16" y="12" width="3" height="1" fill="#2E3945"/>
  <rect x="19" y="12" width="5" height="1" fill="#D9A83D"/>
  <rect x="28" y="12" width="4" height="1" fill="#D9A83D"/>
  <rect x="32" y="12" width="3" height="1" fill="#202833"/>
  <rect x="35" y="12" width="3" height="1" fill="#2E3945"/>
  <rect x="15" y="13" width="1" height="1" fill="#44515E"/>
  <rect x="16" y="13" width="2" height="1" fill="#2E3945"/>
  <rect x="18" y="13" width="7" height="1" fill="#D9A83D"/>
  <rect x="27" y="13" width="4" height="1" fill="#D9A83D"/>
  <rect x="31" y="13" width="3" height="1" fill="#202833"/>
  <rect x="34" y="13" width="4" height="1" fill="#2E3945"/>
  <rect x="16" y="14" width="1" height="1" fill="#2E3945"/>
  <rect x="17" y="14" width="13" height="1" fill="#D9A83D"/>
  <rect x="30" y="14" width="3" height="1" fill="#202833"/>
  <rect x="33" y="14" width="4" height="1" fill="#2E3945"/>
  <rect x="17" y="15" width="13" height="1" fill="#D9A83D"/>
  <rect x="30" y="15" width="2" height="1" fill="#202833"/>
  <rect x="32" y="15" width="4" height="1" fill="#2E3945"/>
  <rect x="18" y="16" width="12" height="1" fill="#D9A83D"/>
  <rect x="30" y="16" width="5" height="1" fill="#2E3945"/>
  <rect x="19" y="17" width="4" height="1" fill="#D9A83D"/>
  <rect x="23" y="17" width="1" height="1" fill="#2E3945"/>
  <rect x="24" y="17" width="1" height="1" fill="#44515E"/>
  <rect x="25" y="17" width="2" height="1" fill="#D9A83D"/>
  <rect x="27" y="17" width="2" height="1" fill="#44515E"/>
  <rect x="29" y="17" width="1" height="1" fill="#D9A83D"/>
  <rect x="30" y="17" width="4" height="1" fill="#2E3945"/>
  <rect x="20" y="18" width="2" height="1" fill="#D9A83D"/>
  <rect x="22" y="18" width="11" height="1" fill="#2E3945"/>
  <rect x="21" y="19" width="4" height="1" fill="#2E3945"/>
  <rect x="27" y="19" width="2" height="1" fill="#2E3945"/>
  <rect x="31" y="19" width="1" height="1" fill="#2E3945"/>
  <rect x="22" y="20" width="1" height="1" fill="#2E3945"/>
</svg>
