<svg xmlns="http://www.w3.org/2000/svg" width="64" height="64" viewBox="0 0 64 64" shape-rendering="crispEdges">
  <metadata>Generated from left_wing.png; transparent pixels omitted; same-color horizontal pixels merged.</metadata>
  <rect x="19" y="28" width="2" height="1" fill="#D9A83D"/>
  <rect x="20" y="29" width="3" height="1" fill="#D9A83D"/>
  <rect x="19" y="30" width="9" height="1" fill="#D9A83D"/>
  <rect x="20" y="31" width="10" height="1" fill="#D9A83D"/>
  <rect x="19" y="32" width="4" height="1" fill="#D9A83D"/>
  <rect x="23" y="32" width="2" height="1" fill="#44515E"/>
  <rect x="25" y="32" width="5" height="1" fill="#D9A83D"/>
  <rect x="20" y="33" width="3" height="1" fill="#D9A83D"/>
  <rect x="23" y="33" width="1" height="1" fill="#44515E"/>
  <rect x="24" y="33" width="2" height="1" fill="#2E3945"/>
  <rect x="26" y="33" width="1" height="1" fill="#44515E"/>
  <rect x="27" y="33" width="3" height="1" fill="#D9A83D"/>
  <rect x="20" y="34" width="3" height="1" fill="#D9A83D"/>
  <rect x="23" y="34" width="4" height="1" fill="#2E3945"/>
  <rect x="27" y="34" width="2" height="1" fill="#D9A83D"/>
  <rect x="20" y="35" width="4" height="1" fill="#D9A83D"/>
  <rect x="24" y="35" width="2" height="1" fill="#2E3945"/>
  <rect x="26" y="35" width="1" height="1" fill="#44515E"/>
  <rect x="27" y="35" width="3" height="1" fill="#D9A83D"/>
  <rect x="20" y="36" width="3" height="1" fill="#D9A83D"/>
  <rect x="23" y="36" width="1" height="1" fill="#44515E"/>
  <rect x="24" y="36" width="2" height="1" fill="#2E3945"/>
  <rect x="26" y="36" width="1" height="1" fill="#44515E"/>
  <rect x="27" y="36" width="3" height="1" fill="#D9A83D"/>
  <rect x="20" y="37" width="4" height="1" fill="#D9A83D"/>
  <rect x="24" y="37" width="2" height="1" fill="#2E3945"/>
  <rect x="26" y="37" width="1" height="1" fill="#44515E"/>
  <rect x="27" y="37" width="2" height="1" fill="#D9A83D"/>
  <rect x="20" y="38" width="3" height="1" fill="#D9A83D"/>
  <rect x="23" y="38" width="1" height="1" fill="#44515E"/>
  <rect x="24" y="38" width="2" height="1" fill="#2E3945"/>
  <rect x="26" y="38" width="1" height="1" fill="#44515E"/>
  <rect x="27" y="38" width="2" height="1" fill="#D9A83D"/>
  <rect x="20" y="39" width="4" height="1" fill="#D9A83D"/>
  <rect x="24" y="39" width="2" height="1" fill="#2E3945"/>
  <rect x="26" y="39" width="2" height="1" fill="#D9A83D"/>
  <rect x="20" y="40" width="4" height="1" fill="#D9A83D"/>
  <rect x="24" y="40" width="1" height="1" fill="#2E3945"/>
  <rect x="25" y="40" width="1" height="1" fill="#44515E"/>
  <rect x="26" y="40" width="2" height="1" fill="#D9A83D"/>
  <rect x="21" y="41" width="3" height="1" fill="#D9A83D"/>
  <rect x="24" y="41" width="1" height="1" fill="#2E3945"/>
  <rect x="25" y="41" width="1" height="1" fill="#44515E"/>
  <rect x="26" y="41" width="2" height="1" fill="#D9A83D"/>
  <rect x="21" y="42" width="6" height="1" fill="#D9A83D"/>
  <rect x="23" y="43" width="4" height="1" fill="#D9A83D"/>
  <rect x="25" y="44" width="1" height="1" fill="#D9A83D"/>
</svg>
