<svg xmlns="http://www.w3.org/2000/svg" width="64" height="64" viewBox="0 0 64 64" shape-rendering="crispEdges">
  <metadata>Generated from outer_flame.png; transparent pixels omitted; same-color horizontal pixels merged.</metadata>
  <rect x="41" y="4" width="1" height="1" fill="#65A9B8"/>
  <rect x="40" y="5" width="4" height="1" fill="#65A9B8"/>
  <rect x="39" y="6" width="5" height="1" fill="#65A9B8"/>
  <rect x="38" y="7" width="8" height="1" fill="#65A9B8"/>
  <rect x="37" y="8" width="9" height="1" fill="#65A9B8"/>
  <rect x="36" y="9" width="12" height="1" fill="#65A9B8"/>
  <rect x="36" y="10" width="5" height="1" fill="#65A9B8"/>
  <rect x="44" y="10" width="3" height="1" fill="#65A9B8"/>
  <rect x="37" y="11" width="2" height="1" fill="#65A9B8"/>
  <rect x="44" y="11" width="3" height="1" fill="#65A9B8"/>
  <rect x="37" y="12" width="1" height="1" fill="#65A9B8"/>
  <rect x="45" y="12" width="3" height="1" fill="#65A9B8"/>
  <rect x="37" y="13" width="1" height="1" fill="#65A9B8"/>
  <rect x="44" y="13" width="4" height="1" fill="#65A9B8"/>
  <rect x="38" y="14" width="1" height="1" fill="#65A9B8"/>
  <rect x="42" y="14" width="6" height="1" fill="#65A9B8"/>
  <rect x="38" y="15" width="10" height="1" fill="#65A9B8"/>
  <rect x="39" y="16" width="9" height="1" fill="#65A9B8"/>
  <rect x="39" y="17" width="9" height="1" fill="#65A9B8"/>
  <rect x="44" y="18" width="1" height="1" fill="#65A9B8"/>
  <rect x="47" y="18" width="1" height="1" fill="#65A9B8"/>
</svg>
